<?xml version="1.0" encoding="UTF-8"?>
<svg id="Ebene_1" xmlns="http://www.w3.org/2000/svg" version="1.1" viewBox="0 0 300 300">
  <!-- Generator: Adobe Illustrator 30.3.0, SVG Export Plug-In . SVG Version: 2.1.3 Build 182)  -->
  <defs>
    <style>
      .st0 {
        fill: #fff;
      }
    </style>
  </defs>
  <path class="st0" d="M176.6,108.4c-13.9-7.4-29.9-8.9-44.9-4.3-4.1,1.3-8.1,3-11.8,5.1l74.7,88.5c12.3-15.2,16.4-35.7,10.7-54.4-4.6-15.1-14.8-27.4-28.7-34.8Z"/>
  <path class="st0" d="M265.8,59c0-3.2-2.6-5.8-5.8-5.8h-28.2c-3.2,0-5.8,2.6-5.8,5.8v6h39.8v-6Z"/>
  <path class="st0" d="M260.8,69.3h-45.5c-7.4,0-9.5-3.3-9.5-3.3,0,0-7.4-13.6-12.5-20.7-5.1-7.1-13.8-7-13.8-7h-58.4s-8.7-.1-13.8,7-12.5,20.7-12.5,20.7c0,0-2.1,3.3-9.5,3.3h-45.5c-17.7,0-32,14.3-32,32v128c0,17.7,14.3,32,32,32h220.9c17.7,0,32-14.3,32-32v-128c0-17.7-14.3-32-32-32ZM223.3,231.6l-11.9,10-18-21.3c-6.8,5.1-14.5,8.9-22.7,11.5-39.3,12-81-10.2-93-49.5-5.8-19-3.6-40,6-57.5l11,13c-5.3,12.7-6.1,26.8-2.1,39.9,4.6,15,14.8,27.4,28.7,34.8,13.9,7.4,29.9,9,44.9,4.4,6.2-1.9,12-4.8,17.2-8.5l-85.9-101.7,6.2-5.3c7.1-5.4,15-9.5,23.6-12.1,19-5.8,39.2-3.9,56.8,5.5,17.6,9.3,30.4,25,36.2,44,7.5,24.6,1.6,51.6-15.4,71l18.5,21.9ZM272.3,102.8c0,2.8-2.2,5-5,5h-34.5c-2.8,0-5-2.2-5-5v-7.5c0-2.8,2.2-5,5-5h34.5c2.8,0,5,2.2,5,5v7.5Z"/>
</svg>