<?xml version="1.0" encoding="UTF-8"?>
<svg id="Ebene_1" xmlns="http://www.w3.org/2000/svg" version="1.1" viewBox="0 0 1037.6 300">
  <!-- Generator: Adobe Illustrator 30.3.0, SVG Export Plug-In . SVG Version: 2.1.3 Build 182)  -->
  <defs>
    <style>
      .st0 {
        fill: #fff;
      }
    </style>
  </defs>
  <g>
    <path class="st0" d="M180.5,104.1c-13.9-7.4-29.9-8.9-44.9-4.3-4.1,1.3-8.1,3-11.8,5.1l74.7,88.5c12.3-15.2,16.4-35.7,10.7-54.4-4.6-15.1-14.8-27.4-28.7-34.8Z"/>
    <path class="st0" d="M269.7,54.7c0-3.2-2.6-5.8-5.8-5.8h-28.2c-3.2,0-5.8,2.6-5.8,5.8v6h39.8v-6Z"/>
    <path class="st0" d="M264.7,65h-45.5c-7.4,0-9.5-3.3-9.5-3.3,0,0-7.4-13.6-12.5-20.7-5.1-7.1-13.8-7-13.8-7h-58.4s-8.7-.1-13.8,7-12.5,20.7-12.5,20.7c0,0-2.1,3.3-9.5,3.3h-45.5c-17.7,0-32,14.3-32,32v128c0,17.7,14.3,32,32,32h220.9c17.7,0,32-14.3,32-32v-128c0-17.7-14.3-32-32-32ZM227.1,227.3l-11.9,10-18-21.3c-6.8,5.1-14.5,8.9-22.7,11.5-39.3,12-81-10.2-93-49.5-5.8-19-3.6-40,6-57.5l11,13c-5.3,12.7-6.1,26.8-2.1,39.9,4.6,15,14.8,27.4,28.7,34.8,13.9,7.4,29.9,9,44.9,4.4,6.2-1.9,12-4.8,17.2-8.5l-85.9-101.7,6.2-5.3c7.1-5.4,15-9.5,23.6-12.1,19-5.8,39.2-3.9,56.8,5.5,17.6,9.3,30.4,25,36.2,44,7.5,24.6,1.6,51.6-15.4,71l18.5,21.9ZM276.2,98.5c0,2.8-2.2,5-5,5h-34.5c-2.8,0-5-2.2-5-5v-7.5c0-2.8,2.2-5,5-5h34.5c2.8,0,5,2.2,5,5v7.5Z"/>
  </g>
  <path class="st0" d="M352.3,36.7h14.7v113.1h73.1v13.5h-87.7V36.7ZM454.8,110.2V36.7h14.7v72.6c0,28,14.8,43,39.7,43s39.1-13.7,39.1-42V36.7h14.7v72.4c0,37.8-21.7,56.9-54.2,56.9s-54-19.1-54-55.8ZM352.3,235h0c0-12.1,9.2-22.3,22.1-22.3s12.1,2.1,16.5,5.8l-4.8,5.7c-3.3-2.8-6.5-4.6-12-4.6-7.9,0-13.9,6.9-13.9,15.1h0c0,8.9,5.8,15.4,14.6,15.4s7.7-1.3,10.3-3.2v-8h-11v-6.6h18.2v18c-4.2,3.6-10.3,6.7-17.9,6.7-13.4,0-22.2-9.6-22.2-22ZM511.5,213.4h19.1c5.4,0,9.6,1.6,12.4,4.3,2.3,2.3,3.6,5.5,3.6,9.2h0c0,7.2-4.2,11.4-10.2,13.1l11.6,16.2h-8.9l-10.5-14.9h-9.4v14.9h-7.5v-42.9ZM530.1,234.7c5.4,0,8.8-2.8,8.8-7.2h0c0-4.7-3.3-7.2-8.9-7.2h-11v14.4h11ZM667,235h0c0-12.2,9.3-22.3,22.5-22.3s22.3,10,22.3,22h0c0,12.2-9.3,22.3-22.5,22.3s-22.3-10-22.3-22ZM703.9,235h0c0-8.4-6.1-15.4-14.6-15.4s-14.4,6.8-14.4,15.1h0c0,8.4,6.1,15.4,14.6,15.4s14.4-6.8,14.4-15.1ZM831,238.1v-24.7h7.5v24.4c0,8,4.1,12.2,10.8,12.2s10.8-4,10.8-11.9v-24.7h7.5v24.3c0,12.8-7.2,19.2-18.4,19.2s-18.2-6.4-18.2-18.9ZM986.8,213.4h16.9c10,0,16.3,5.7,16.3,14.3h0c0,9.7-7.7,14.8-17.1,14.8h-8.5v13.8h-7.5v-42.9ZM1003,235.7c5.7,0,9.2-3.2,9.2-7.7h0c0-5.1-3.6-7.8-9.2-7.8h-8.8v15.4h8.8ZM715.7,80.8c-5.1-16.9-16.5-30.7-32.1-39-15.6-8.3-33.4-10-50.3-4.9-7.6,2.3-14.6,5.9-20.9,10.7l-5.5,4.7,76,90.1c-4.6,3.3-9.7,5.8-15.2,7.5-13.3,4.1-27.4,2.7-39.8-3.9-12.3-6.6-21.4-17.5-25.4-30.8-3.6-11.6-2.8-24.1,1.9-35.4l-9.7-11.5c-8.5,15.5-10.4,34.1-5.3,50.9,10.6,34.8,47.6,54.4,82.4,43.8,7.3-2.2,14-5.6,20.1-10.1l16,18.9,10.5-8.9-16.3-19.4c15-17.1,20.3-41,13.6-62.9ZM626.9,54.6c3.3-1.9,6.8-3.4,10.5-4.5,13.3-4.1,27.5-2.7,39.8,3.8,12.3,6.6,21.3,17.5,25.4,30.8,5,16.5,1.4,34.7-9.4,48.2l-66.2-78.4ZM873.1,100c0,36.4-29.5,66-66,66s-66-29.5-66-66,29.5-66,66-66,66,29.5,66,66ZM807.1,47.8c-28.8,0-52.2,23.4-52.2,52.2s23.4,52.2,52.2,52.2,52.2-23.4,52.2-52.2-23.4-52.2-52.2-52.2ZM1005.1,36.7l-47.3,70.8-47.3-70.8h-14.8v126.6h14.7V61.4l47.3,69.5h.4l47.3-69.5v102h14.7V36.7h-14.8Z"/>
</svg>